<svg width="423" height="23" viewBox="0 0 423 23" fill="none" xmlns="http://www.w3.org/2000/svg">
<path d="M10 19H104" stroke="white" stroke-width="2" stroke-linecap="round" stroke-linejoin="round"/>
<path opacity="0.2" d="M113 19H207" stroke="white" stroke-width="2" stroke-linecap="round" stroke-linejoin="round"/>
<path opacity="0.2" d="M216 19H310" stroke="white" stroke-width="2" stroke-linecap="round" stroke-linejoin="round"/>
<path opacity="0.2" d="M319 19H413" stroke="white" stroke-width="2" stroke-linecap="round" stroke-linejoin="round"/>
<path d="M-1.74846e-07 19L6 15.5359L6 22.4641L-1.74846e-07 19Z" fill="white"/>
<path d="M-1.74846e-07 19L6 15.5359L6 22.4641L-1.74846e-07 19Z" fill="white"/>
<path d="M423 19L417 22.4641L417 15.5359L423 19Z" fill="white"/>
<path d="M423 19L417 22.4641L417 15.5359L423 19Z" fill="white"/>
<path d="M45.501 2.89062H46.9658V7.8125C46.9658 8.26497 46.8649 8.66536 46.6631 9.01367C46.4645 9.35872 46.1829 9.62565 45.8184 9.81445C45.4538 10.0033 45.042 10.0977 44.583 10.0977C43.8311 10.0977 43.2451 9.90723 42.8252 9.52637C42.4053 9.14225 42.1953 8.60026 42.1953 7.90039H43.6699C43.6699 8.2487 43.7432 8.50586 43.8896 8.67188C44.0361 8.83789 44.2673 8.9209 44.583 8.9209C44.863 8.9209 45.0859 8.82487 45.252 8.63281C45.418 8.44076 45.501 8.16732 45.501 7.8125V2.89062ZM47.9082 7.30957C47.9082 6.78548 48.0091 6.31836 48.2109 5.9082C48.4128 5.49805 48.7025 5.18066 49.0801 4.95605C49.4609 4.73145 49.902 4.61914 50.4033 4.61914C51.1162 4.61914 51.6973 4.83724 52.1465 5.27344C52.599 5.70964 52.8512 6.30208 52.9033 7.05078L52.9131 7.41211C52.9131 8.22266 52.6868 8.8737 52.2344 9.36523C51.7819 9.85352 51.1748 10.0977 50.4131 10.0977C49.6514 10.0977 49.0426 9.85352 48.5869 9.36523C48.1344 8.87695 47.9082 8.21289 47.9082 7.37305V7.30957ZM49.3193 7.41211C49.3193 7.91341 49.4137 8.29753 49.6025 8.56445C49.7913 8.82812 50.0615 8.95996 50.4131 8.95996C50.7549 8.95996 51.0218 8.82975 51.2139 8.56934C51.4059 8.30566 51.502 7.88574 51.502 7.30957C51.502 6.81803 51.4059 6.43717 51.2139 6.16699C51.0218 5.89681 50.7516 5.76172 50.4033 5.76172C50.0583 5.76172 49.7913 5.89681 49.6025 6.16699C49.4137 6.43392 49.3193 6.84896 49.3193 7.41211ZM55.2715 10H53.8555V4.7168H55.2715V10ZM53.7725 3.34961C53.7725 3.13802 53.8424 2.96387 53.9824 2.82715C54.1257 2.69043 54.3193 2.62207 54.5635 2.62207C54.8044 2.62207 54.9964 2.69043 55.1396 2.82715C55.2829 2.96387 55.3545 3.13802 55.3545 3.34961C55.3545 3.56445 55.2812 3.74023 55.1348 3.87695C54.9915 4.01367 54.8011 4.08203 54.5635 4.08203C54.3258 4.08203 54.1338 4.01367 53.9873 3.87695C53.8441 3.74023 53.7725 3.56445 53.7725 3.34961ZM57.7373 4.7168L57.7812 5.32715C58.1589 4.85514 58.665 4.61914 59.2998 4.61914C59.8597 4.61914 60.2764 4.78353 60.5498 5.1123C60.8232 5.44108 60.9632 5.93262 60.9697 6.58691V10H59.5586V6.62109C59.5586 6.32161 59.4935 6.10514 59.3633 5.97168C59.2331 5.83496 59.0166 5.7666 58.7139 5.7666C58.3167 5.7666 58.0189 5.93587 57.8203 6.27441V10H56.4092V4.7168H57.7373Z" fill="white"/>
<path opacity="0.2" d="M117.25 8.44692V11H115.839V4.34682H117.776C118.675 4.34682 119.343 4.51197 119.778 4.84227C120.216 5.16919 120.435 5.66801 120.435 6.33873C120.435 6.72969 120.327 7.07853 120.111 7.38524C119.899 7.68857 119.594 7.92787 119.196 8.10313C120.197 9.59623 120.849 10.5618 121.153 11H119.585L117.998 8.44692H117.25ZM117.25 5.50455V7.29929H117.705C118.15 7.29929 118.478 7.22514 118.691 7.07685C118.903 6.92855 119.009 6.69767 119.009 6.38423C119.009 6.07078 118.901 5.84665 118.686 5.71183C118.473 5.57364 118.136 5.50455 117.674 5.50455H117.25ZM124.954 7.88069C124.951 7.54028 124.863 7.2757 124.691 7.08696C124.519 6.89821 124.285 6.80384 123.989 6.80384C123.695 6.80384 123.464 6.89821 123.296 7.08696C123.127 7.27233 123.031 7.53691 123.008 7.88069H124.954ZM125.97 10.7321C125.492 10.9714 124.895 11.091 124.181 11.091C123.362 11.091 122.721 10.8669 122.26 10.4186C121.801 9.96697 121.572 9.31985 121.572 8.47725C121.572 7.63465 121.784 6.98079 122.209 6.51567C122.64 6.05056 123.222 5.818 123.953 5.818C124.688 5.818 125.256 6.02359 125.657 6.43478C126.058 6.84597 126.259 7.41052 126.259 8.12841V8.80081H122.977C122.991 9.19852 123.107 9.50859 123.326 9.73104C123.549 9.95012 123.855 10.0597 124.246 10.0597C124.829 10.0597 125.404 9.92653 125.97 9.66026V10.7321ZM130.396 8.36097C130.757 8.63397 130.937 9.02157 130.937 9.52376C130.937 10.026 130.755 10.4135 130.391 10.6866C130.027 10.9562 129.503 11.091 128.819 11.091C128.138 11.091 127.562 10.9933 127.09 10.7978V9.65015C127.349 9.77149 127.639 9.8726 127.959 9.95349C128.283 10.0344 128.568 10.0748 128.814 10.0748C129.316 10.0748 129.567 9.9299 129.567 9.64004C129.567 9.49511 129.5 9.37715 129.365 9.28615C129.23 9.19515 128.949 9.05696 128.521 8.87159C128.096 8.68621 127.789 8.52444 127.601 8.38625C127.418 8.24469 127.285 8.0846 127.201 7.90597C127.12 7.72396 127.08 7.50152 127.08 7.23862C127.08 6.78699 127.255 6.43815 127.606 6.19211C127.956 5.9427 128.445 5.818 129.072 5.818C129.702 5.818 130.305 5.95113 130.882 6.21739L130.462 7.2184C130.169 7.0937 129.916 7.00101 129.704 6.94034C129.495 6.87631 129.284 6.84429 129.072 6.84429C128.66 6.84429 128.455 6.95551 128.455 7.17796C128.455 7.30266 128.524 7.4122 128.662 7.50657C128.8 7.60094 129.075 7.7307 129.486 7.89585C129.901 8.061 130.204 8.21604 130.396 8.36097ZM133.402 11.1769V13.2396H132.017V5.91405H133.144L133.342 6.57128H133.402C133.733 6.06909 134.206 5.818 134.823 5.818C135.44 5.818 135.918 6.05056 136.259 6.51567C136.599 6.97742 136.769 7.6178 136.769 8.4368C136.773 9.25581 136.596 9.9063 136.239 10.3883C135.881 10.8669 135.406 11.1011 134.813 11.091C134.21 11.091 133.739 10.8736 133.402 10.4388H133.332C133.379 10.8804 133.402 11.1264 133.402 11.1769ZM135.354 8.43175C135.354 7.92619 135.276 7.55039 135.121 7.30435C134.966 7.05494 134.722 6.93023 134.388 6.93023C134.054 6.93023 133.808 7.0364 133.65 7.24874C133.492 7.46107 133.409 7.80822 133.402 8.29019V8.4368C133.402 8.97944 133.483 9.37041 133.645 9.60971C133.807 9.84901 134.065 9.96866 134.418 9.96866C135.042 9.96866 135.354 9.45635 135.354 8.43175ZM140.868 7.3094C140.703 7.05999 140.437 6.93529 140.069 6.93529C139.702 6.93529 139.436 7.05999 139.27 7.3094C139.105 7.55544 139.023 7.9363 139.023 8.45197C139.023 8.96427 139.107 9.34681 139.275 9.5996C139.444 9.85238 139.71 9.97877 140.074 9.97877C140.438 9.97877 140.703 9.85238 140.868 9.5996C141.037 9.34681 141.121 8.96427 141.121 8.45197C141.121 7.9363 141.037 7.55544 140.868 7.3094ZM140.084 5.818C140.822 5.80789 141.419 6.0455 141.874 6.53084C142.329 7.01281 142.55 7.6515 142.536 8.44692C142.536 9.27604 142.317 9.92484 141.879 10.3933C141.444 10.8584 140.838 11.091 140.059 11.091C139.321 11.0977 138.724 10.8584 138.269 10.3731C137.818 9.88777 137.597 9.2457 137.607 8.44692C137.607 7.6178 137.823 6.97236 138.254 6.51062C138.689 6.04887 139.299 5.818 140.084 5.818ZM148.384 7.68352V11H146.993V8.0273C146.993 7.65656 146.928 7.38187 146.796 7.20324C146.665 7.02123 146.457 6.93023 146.174 6.93023C145.79 6.93023 145.51 7.05999 145.335 7.31951C145.16 7.57567 145.072 8.00539 145.072 8.6087V11H143.687V5.91405H144.749L144.936 6.56623H145.012C145.163 6.32356 145.374 6.13819 145.644 6.01011C145.917 5.88204 146.227 5.818 146.574 5.818C147.167 5.818 147.617 5.97809 147.924 6.29828C148.23 6.6151 148.384 7.07685 148.384 7.68352ZM152.864 10.3428C152.547 10.8416 152.077 11.091 151.453 11.091C150.833 11.091 150.353 10.8601 150.012 10.3984C149.672 9.9299 149.502 9.28109 149.502 8.45197C149.502 7.62285 149.675 6.97742 150.022 6.51567C150.373 6.05056 150.86 5.818 151.483 5.818C152.107 5.818 152.587 6.06741 152.924 6.56623H152.97C152.899 6.18537 152.864 5.84665 152.864 5.55005V3.92214H154.254V11H153.192L152.924 10.3428H152.864ZM150.907 8.48231C150.907 9.48332 151.241 9.98382 151.908 9.98382C152.262 9.98382 152.522 9.88102 152.687 9.67543C152.855 9.46646 152.946 9.11594 152.96 8.62386V8.47725C152.96 7.93124 152.875 7.54028 152.707 7.30435C152.538 7.06505 152.264 6.9454 151.883 6.9454C151.573 6.9454 151.332 7.07853 151.16 7.34479C150.991 7.60768 150.907 7.98686 150.907 8.48231ZM161.068 5.51972V11H159.658V5.51972H157.853V4.34682H162.873V5.51972H161.068ZM166.083 7.3094C165.918 7.05999 165.651 6.93529 165.284 6.93529C164.917 6.93529 164.65 7.05999 164.485 7.3094C164.32 7.55544 164.238 7.9363 164.238 8.45197C164.238 8.96427 164.322 9.34681 164.49 9.5996C164.659 9.85238 164.925 9.97877 165.289 9.97877C165.653 9.97877 165.918 9.85238 166.083 9.5996C166.251 9.34681 166.336 8.96427 166.336 8.45197C166.336 7.9363 166.251 7.55544 166.083 7.3094ZM165.299 5.818C166.037 5.80789 166.634 6.0455 167.089 6.53084C167.544 7.01281 167.765 7.6515 167.751 8.44692C167.751 9.27604 167.532 9.92484 167.094 10.3933C166.659 10.8584 166.052 11.091 165.274 11.091C164.536 11.0977 163.939 10.8584 163.484 10.3731C163.033 9.88777 162.812 9.2457 162.822 8.44692C162.822 7.6178 163.038 6.97236 163.469 6.51062C163.904 6.04887 164.514 5.818 165.299 5.818ZM174.575 5.4186C174.016 5.4186 173.593 5.60735 173.306 5.98483C173.023 6.36232 172.882 6.92181 172.882 7.6633C172.882 9.15976 173.443 9.90799 174.565 9.90799C175.691 9.90799 176.254 9.15976 176.254 7.6633C176.254 6.16683 175.694 5.4186 174.575 5.4186ZM177.735 7.6633C177.735 8.4486 177.595 9.10583 177.315 9.63498C177.039 10.1641 176.633 10.5517 176.097 10.7978L177.7 12.5824H175.89L174.671 11.091H174.565C173.547 11.091 172.765 10.7961 172.219 10.2063C171.673 9.61645 171.4 8.7671 171.4 7.65824C171.4 6.54938 171.673 5.7034 172.219 5.12032C172.772 4.53724 173.559 4.2457 174.58 4.2457C175.602 4.2457 176.382 4.54061 176.921 5.13043C177.464 5.72026 177.735 6.56454 177.735 7.6633ZM183.666 11H182.604L182.417 10.3478H182.341C182.193 10.5871 181.982 10.7708 181.709 10.8989C181.436 11.027 181.126 11.091 180.779 11.091C180.186 11.091 179.736 10.9326 179.429 10.6158C179.126 10.2956 178.974 9.83384 178.974 9.23054V5.91405H180.359V8.88675C180.359 9.25413 180.425 9.52882 180.557 9.71082C180.688 9.89282 180.895 9.98382 181.178 9.98382C181.566 9.98382 181.846 9.85575 182.018 9.5996C182.193 9.34007 182.281 8.90866 182.281 8.30536V5.91405H183.666V11ZM188.196 7.88069C188.193 7.54028 188.105 7.2757 187.933 7.08696C187.762 6.89821 187.527 6.80384 187.231 6.80384C186.938 6.80384 186.707 6.89821 186.538 7.08696C186.37 7.27233 186.274 7.53691 186.25 7.88069H188.196ZM189.213 10.7321C188.734 10.9714 188.137 11.091 187.423 11.091C186.604 11.091 185.963 10.8669 185.502 10.4186C185.043 9.96697 184.814 9.31985 184.814 8.47725C184.814 7.63465 185.026 6.98079 185.451 6.51567C185.883 6.05056 186.464 5.818 187.195 5.818C187.93 5.818 188.498 6.02359 188.899 6.43478C189.3 6.84597 189.501 7.41052 189.501 8.12841V8.80081H186.22C186.233 9.19852 186.349 9.50859 186.568 9.73104C186.791 9.95012 187.098 10.0597 187.489 10.0597C188.072 10.0597 188.646 9.92653 189.213 9.66026V10.7321ZM193.638 8.36097C193.999 8.63397 194.179 9.02157 194.179 9.52376C194.179 10.026 193.997 10.4135 193.633 10.6866C193.269 10.9562 192.745 11.091 192.061 11.091C191.38 11.091 190.804 10.9933 190.332 10.7978V9.65015C190.592 9.77149 190.881 9.8726 191.202 9.95349C191.525 10.0344 191.81 10.0748 192.056 10.0748C192.558 10.0748 192.809 9.9299 192.809 9.64004C192.809 9.49511 192.742 9.37715 192.607 9.28615C192.472 9.19515 192.191 9.05696 191.763 8.87159C191.338 8.68621 191.031 8.52444 190.843 8.38625C190.661 8.24469 190.528 8.0846 190.443 7.90597C190.362 7.72396 190.322 7.50152 190.322 7.23862C190.322 6.78699 190.497 6.43815 190.848 6.19211C191.198 5.9427 191.687 5.818 192.314 5.818C192.944 5.818 193.547 5.95113 194.124 6.21739L193.704 7.2184C193.411 7.0937 193.158 7.00101 192.946 6.94034C192.737 6.87631 192.526 6.84429 192.314 6.84429C191.903 6.84429 191.697 6.95551 191.697 7.17796C191.697 7.30266 191.766 7.4122 191.904 7.50657C192.043 7.60094 192.317 7.7307 192.728 7.89585C193.143 8.061 193.446 8.21604 193.638 8.36097ZM196.796 9.40748C196.796 9.5996 196.85 9.74452 196.958 9.84226C197.066 9.93664 197.229 9.98382 197.448 9.98382C197.667 9.98382 197.944 9.93158 198.277 9.8271V10.8584C197.934 11.0135 197.497 11.091 196.968 11.091C196.442 11.091 196.051 10.9528 195.795 10.6764C195.539 10.4001 195.411 9.97708 195.411 9.40748V6.95551H194.744V6.36906L195.507 5.90394L195.911 4.83215H196.796V5.91405H198.222V6.95551H196.796V9.40748ZM200.687 5.91405V11H199.302V5.91405H200.687ZM200 5.2821C199.494 5.2821 199.242 5.05629 199.242 4.60465C199.242 4.14965 199.493 3.92214 199.995 3.92214C200.5 3.92214 200.753 4.14796 200.753 4.5996C200.753 4.81867 200.689 4.98719 200.561 5.10516C200.433 5.22312 200.246 5.2821 200 5.2821ZM205.097 7.3094C204.931 7.05999 204.665 6.93529 204.298 6.93529C203.93 6.93529 203.664 7.05999 203.499 7.3094C203.334 7.55544 203.251 7.9363 203.251 8.45197C203.251 8.96427 203.335 9.34681 203.504 9.5996C203.673 9.85238 203.939 9.97877 204.303 9.97877C204.667 9.97877 204.931 9.85238 205.097 9.5996C205.265 9.34681 205.349 8.96427 205.349 8.45197C205.349 7.9363 205.265 7.55544 205.097 7.3094ZM204.313 5.818C205.051 5.80789 205.648 6.0455 206.103 6.53084C206.558 7.01281 206.778 7.6515 206.765 8.44692C206.765 9.27604 206.546 9.92484 206.108 10.3933C205.673 10.8584 205.066 11.091 204.288 11.091C203.549 11.0977 202.953 10.8584 202.498 10.3731C202.046 9.88777 201.826 9.2457 201.836 8.44692C201.836 7.6178 202.051 6.97236 202.483 6.51062C202.918 6.04887 203.528 5.818 204.313 5.818ZM212.612 7.68352V11H211.222V8.0273C211.222 7.65656 211.156 7.38187 211.025 7.20324C210.893 7.02123 210.686 6.93023 210.403 6.93023C210.019 6.93023 209.739 7.05999 209.564 7.31951C209.388 7.57567 209.301 8.00539 209.301 8.6087V11H207.916V5.91405H208.977L209.164 6.56623H209.24C209.392 6.32356 209.602 6.13819 209.872 6.01011C210.145 5.88204 210.455 5.818 210.802 5.818C211.395 5.818 211.845 5.97809 212.152 6.29828C212.459 6.6151 212.612 7.07685 212.612 7.68352Z" fill="white"/>
<path opacity="0.2" d="M239.25 11H237.839V4.34682H239.25V11ZM245.511 7.68352V11H244.12V8.0273C244.12 7.65656 244.055 7.38187 243.923 7.20324C243.792 7.02123 243.584 6.93023 243.301 6.93023C242.917 6.93023 242.637 7.05999 242.462 7.31951C242.287 7.57567 242.199 8.00539 242.199 8.6087V11H240.814V5.91405H241.876L242.063 6.56623H242.139C242.29 6.32356 242.501 6.13819 242.77 6.01011C243.043 5.88204 243.354 5.818 243.701 5.818C244.294 5.818 244.744 5.97809 245.051 6.29828C245.357 6.6151 245.511 7.07685 245.511 7.68352ZM249.748 5.91405V6.95551H248.55V11H247.159V6.95551H246.396V6.28817L247.159 5.91405V5.53994C247.159 4.96023 247.303 4.53724 247.589 4.27098C247.876 4.00472 248.332 3.87159 248.959 3.87159C249.438 3.87159 249.863 3.94237 250.233 4.08392L249.879 5.10516C249.596 5.01753 249.349 4.97371 249.136 4.97371C248.927 4.97371 248.777 5.02932 248.686 5.14055C248.595 5.25177 248.55 5.40344 248.55 5.59555V5.91405H249.748ZM253.503 7.3094C253.338 7.05999 253.071 6.93529 252.704 6.93529C252.337 6.93529 252.07 7.05999 251.905 7.3094C251.74 7.55544 251.657 7.9363 251.657 8.45197C251.657 8.96427 251.742 9.34681 251.91 9.5996C252.079 9.85238 252.345 9.97877 252.709 9.97877C253.073 9.97877 253.338 9.85238 253.503 9.5996C253.671 9.34681 253.756 8.96427 253.756 8.45197C253.756 7.9363 253.671 7.55544 253.503 7.3094ZM252.719 5.818C253.457 5.80789 254.054 6.0455 254.509 6.53084C254.964 7.01281 255.185 7.6515 255.171 8.44692C255.171 9.27604 254.952 9.92484 254.514 10.3933C254.079 10.8584 253.472 11.091 252.694 11.091C251.956 11.0977 251.359 10.8584 250.904 10.3731C250.453 9.88777 250.232 9.2457 250.242 8.44692C250.242 7.6178 250.458 6.97236 250.889 6.51062C251.324 6.04887 251.934 5.818 252.719 5.818ZM259.163 5.818C259.338 5.818 259.493 5.83148 259.628 5.85844L259.527 7.15773C259.412 7.1274 259.276 7.11223 259.118 7.11223C258.673 7.11223 258.325 7.22683 258.076 7.45602C257.83 7.68183 257.707 8.00034 257.707 8.41153V11H256.322V5.91405H257.373L257.576 6.76845H257.646C257.808 6.4786 258.024 6.24772 258.293 6.07583C258.563 5.90394 258.853 5.818 259.163 5.818ZM265.105 8.44692V11H263.715V8.0273C263.715 7.65656 263.653 7.38187 263.528 7.20324C263.403 7.02123 263.211 6.93023 262.952 6.93023C262.598 6.93023 262.34 7.05999 262.178 7.31951C262.016 7.57567 261.936 8.00539 261.936 8.6087V11H260.55V5.91405H261.612L261.799 6.56623H261.875C262.01 6.3303 262.205 6.14661 262.461 6.01517C262.721 5.88372 263.017 5.818 263.351 5.818C264.116 5.818 264.632 6.06741 264.898 6.56623H265.024C265.156 6.32693 265.355 6.14324 265.621 6.01517C265.887 5.88372 266.189 5.818 266.526 5.818C267.112 5.818 267.551 5.96798 267.84 6.26795C268.13 6.56791 268.275 7.03977 268.275 7.68352V11H266.885V8.0273C266.885 7.65656 266.823 7.38187 266.698 7.20324C266.573 7.02123 266.381 6.93023 266.122 6.93023C265.778 6.93023 265.522 7.05325 265.353 7.29929C265.188 7.54196 265.105 7.9245 265.105 8.44692ZM273.902 11H272.931L272.663 10.3074H272.628C272.392 10.604 272.151 10.8096 271.905 10.9242C271.659 11.0354 271.337 11.091 270.939 11.091C270.447 11.091 270.061 10.9511 269.782 10.6714C269.502 10.3883 269.362 9.98551 269.362 9.46309C269.362 8.94068 269.547 8.54971 269.918 8.29019C270.292 8.03067 270.865 7.88743 271.637 7.86047L272.522 7.83519V7.61274C272.522 7.09707 272.257 6.83923 271.728 6.83923C271.327 6.83923 270.85 6.96057 270.297 7.20324L269.837 6.26795C270.42 5.96124 271.062 5.80789 271.763 5.80789C272.468 5.80789 273 5.95955 273.361 6.26289C273.722 6.56286 273.902 7.01281 273.902 7.61274V11ZM272.522 9.0637V8.64408L271.986 8.65925C271.578 8.67273 271.276 8.74688 271.081 8.8817C270.885 9.01314 270.788 9.21537 270.788 9.48837C270.788 9.87934 271.012 10.0748 271.46 10.0748C271.784 10.0748 272.041 9.98382 272.234 9.80182C272.426 9.61645 272.522 9.37041 272.522 9.0637ZM276.863 9.40748C276.863 9.5996 276.916 9.74452 277.024 9.84226C277.132 9.93664 277.296 9.98382 277.515 9.98382C277.734 9.98382 278.01 9.93158 278.344 9.8271V10.8584C278 11.0135 277.564 11.091 277.034 11.091C276.509 11.091 276.118 10.9528 275.862 10.6764C275.605 10.4001 275.477 9.97708 275.477 9.40748V6.95551H274.81V6.36906L275.573 5.90394L275.978 4.83215H276.863V5.91405H278.288V6.95551H276.863V9.40748ZM280.754 5.91405V11H279.369V5.91405H280.754ZM280.066 5.2821C279.561 5.2821 279.308 5.05629 279.308 4.60465C279.308 4.14965 279.559 3.92214 280.061 3.92214C280.567 3.92214 280.82 4.14796 280.82 4.5996C280.82 4.81867 280.756 4.98719 280.627 5.10516C280.499 5.22312 280.312 5.2821 280.066 5.2821ZM285.163 7.3094C284.998 7.05999 284.731 6.93529 284.364 6.93529C283.997 6.93529 283.73 7.05999 283.565 7.3094C283.4 7.55544 283.318 7.9363 283.318 8.45197C283.318 8.96427 283.402 9.34681 283.57 9.5996C283.739 9.85238 284.005 9.97877 284.369 9.97877C284.733 9.97877 284.998 9.85238 285.163 9.5996C285.331 9.34681 285.416 8.96427 285.416 8.45197C285.416 7.9363 285.331 7.55544 285.163 7.3094ZM284.379 5.818C285.117 5.80789 285.714 6.0455 286.169 6.53084C286.624 7.01281 286.845 7.6515 286.831 8.44692C286.831 9.27604 286.612 9.92484 286.174 10.3933C285.739 10.8584 285.133 11.091 284.354 11.091C283.616 11.0977 283.019 10.8584 282.564 10.3731C282.113 9.88777 281.892 9.2457 281.902 8.44692C281.902 7.6178 282.118 6.97236 282.549 6.51062C282.984 6.04887 283.594 5.818 284.379 5.818ZM292.679 7.68352V11H291.288V8.0273C291.288 7.65656 291.223 7.38187 291.091 7.20324C290.96 7.02123 290.752 6.93023 290.469 6.93023C290.085 6.93023 289.805 7.05999 289.63 7.31951C289.455 7.57567 289.367 8.00539 289.367 8.6087V11H287.982V5.91405H289.044L289.231 6.56623H289.306C289.458 6.32356 289.669 6.13819 289.938 6.01011C290.211 5.88204 290.522 5.818 290.869 5.818C291.462 5.818 291.912 5.97809 292.219 6.29828C292.525 6.6151 292.679 7.07685 292.679 7.68352Z" fill="white"/>
<path opacity="0.2" d="M342.25 11H340.839V4.34682H342.25V11ZM348.511 7.68352V11H347.12V8.0273C347.12 7.65656 347.055 7.38187 346.923 7.20324C346.792 7.02123 346.584 6.93023 346.301 6.93023C345.917 6.93023 345.637 7.05999 345.462 7.31951C345.287 7.57567 345.199 8.00539 345.199 8.6087V11H343.814V5.91405H344.876L345.063 6.56623H345.139C345.29 6.32356 345.501 6.13819 345.77 6.01011C346.043 5.88204 346.354 5.818 346.701 5.818C347.294 5.818 347.744 5.97809 348.051 6.29828C348.357 6.6151 348.511 7.07685 348.511 7.68352ZM352.748 5.91405V6.95551H351.55V11H350.159V6.95551H349.396V6.28817L350.159 5.91405V5.53994C350.159 4.96023 350.303 4.53724 350.589 4.27098C350.876 4.00472 351.332 3.87159 351.959 3.87159C352.438 3.87159 352.863 3.94237 353.233 4.08392L352.879 5.10516C352.596 5.01753 352.349 4.97371 352.136 4.97371C351.927 4.97371 351.777 5.02932 351.686 5.14055C351.595 5.25177 351.55 5.40344 351.55 5.59555V5.91405H352.748ZM356.503 7.3094C356.338 7.05999 356.071 6.93529 355.704 6.93529C355.337 6.93529 355.07 7.05999 354.905 7.3094C354.74 7.55544 354.657 7.9363 354.657 8.45197C354.657 8.96427 354.742 9.34681 354.91 9.5996C355.079 9.85238 355.345 9.97877 355.709 9.97877C356.073 9.97877 356.338 9.85238 356.503 9.5996C356.671 9.34681 356.756 8.96427 356.756 8.45197C356.756 7.9363 356.671 7.55544 356.503 7.3094ZM355.719 5.818C356.457 5.80789 357.054 6.0455 357.509 6.53084C357.964 7.01281 358.185 7.6515 358.171 8.44692C358.171 9.27604 357.952 9.92484 357.514 10.3933C357.079 10.8584 356.472 11.091 355.694 11.091C354.956 11.0977 354.359 10.8584 353.904 10.3731C353.453 9.88777 353.232 9.2457 353.242 8.44692C353.242 7.6178 353.458 6.97236 353.889 6.51062C354.324 6.04887 354.934 5.818 355.719 5.818ZM362.163 5.818C362.338 5.818 362.493 5.83148 362.628 5.85844L362.527 7.15773C362.412 7.1274 362.276 7.11223 362.118 7.11223C361.673 7.11223 361.325 7.22683 361.076 7.45602C360.83 7.68183 360.707 8.00034 360.707 8.41153V11H359.322V5.91405H360.373L360.576 6.76845H360.646C360.808 6.4786 361.024 6.24772 361.293 6.07583C361.563 5.90394 361.853 5.818 362.163 5.818ZM368.105 8.44692V11H366.715V8.0273C366.715 7.65656 366.653 7.38187 366.528 7.20324C366.403 7.02123 366.211 6.93023 365.952 6.93023C365.598 6.93023 365.34 7.05999 365.178 7.31951C365.016 7.57567 364.936 8.00539 364.936 8.6087V11H363.55V5.91405H364.612L364.799 6.56623H364.875C365.01 6.3303 365.205 6.14661 365.461 6.01517C365.721 5.88372 366.017 5.818 366.351 5.818C367.116 5.818 367.632 6.06741 367.898 6.56623H368.024C368.156 6.32693 368.355 6.14324 368.621 6.01517C368.887 5.88372 369.189 5.818 369.526 5.818C370.112 5.818 370.551 5.96798 370.84 6.26795C371.13 6.56791 371.275 7.03977 371.275 7.68352V11H369.885V8.0273C369.885 7.65656 369.823 7.38187 369.698 7.20324C369.573 7.02123 369.381 6.93023 369.122 6.93023C368.778 6.93023 368.522 7.05325 368.353 7.29929C368.188 7.54196 368.105 7.9245 368.105 8.44692ZM376.902 11H375.931L375.663 10.3074H375.628C375.392 10.604 375.151 10.8096 374.905 10.9242C374.659 11.0354 374.337 11.091 373.939 11.091C373.447 11.091 373.061 10.9511 372.782 10.6714C372.502 10.3883 372.362 9.98551 372.362 9.46309C372.362 8.94068 372.547 8.54971 372.918 8.29019C373.292 8.03067 373.865 7.88743 374.637 7.86047L375.522 7.83519V7.61274C375.522 7.09707 375.257 6.83923 374.728 6.83923C374.327 6.83923 373.85 6.96057 373.297 7.20324L372.837 6.26795C373.42 5.96124 374.062 5.80789 374.763 5.80789C375.468 5.80789 376 5.95955 376.361 6.26289C376.722 6.56286 376.902 7.01281 376.902 7.61274V11ZM375.522 9.0637V8.64408L374.986 8.65925C374.578 8.67273 374.276 8.74688 374.081 8.8817C373.885 9.01314 373.788 9.21537 373.788 9.48837C373.788 9.87934 374.012 10.0748 374.46 10.0748C374.784 10.0748 375.041 9.98382 375.234 9.80182C375.426 9.61645 375.522 9.37041 375.522 9.0637ZM379.863 9.40748C379.863 9.5996 379.916 9.74452 380.024 9.84226C380.132 9.93664 380.296 9.98382 380.515 9.98382C380.734 9.98382 381.01 9.93158 381.344 9.8271V10.8584C381 11.0135 380.564 11.091 380.034 11.091C379.509 11.091 379.118 10.9528 378.862 10.6764C378.605 10.4001 378.477 9.97708 378.477 9.40748V6.95551H377.81V6.36906L378.573 5.90394L378.978 4.83215H379.863V5.91405H381.288V6.95551H379.863V9.40748ZM383.754 5.91405V11H382.369V5.91405H383.754ZM383.066 5.2821C382.561 5.2821 382.308 5.05629 382.308 4.60465C382.308 4.14965 382.559 3.92214 383.061 3.92214C383.567 3.92214 383.82 4.14796 383.82 4.5996C383.82 4.81867 383.756 4.98719 383.627 5.10516C383.499 5.22312 383.312 5.2821 383.066 5.2821ZM388.163 7.3094C387.998 7.05999 387.731 6.93529 387.364 6.93529C386.997 6.93529 386.73 7.05999 386.565 7.3094C386.4 7.55544 386.318 7.9363 386.318 8.45197C386.318 8.96427 386.402 9.34681 386.57 9.5996C386.739 9.85238 387.005 9.97877 387.369 9.97877C387.733 9.97877 387.998 9.85238 388.163 9.5996C388.331 9.34681 388.416 8.96427 388.416 8.45197C388.416 7.9363 388.331 7.55544 388.163 7.3094ZM387.379 5.818C388.117 5.80789 388.714 6.0455 389.169 6.53084C389.624 7.01281 389.845 7.6515 389.831 8.44692C389.831 9.27604 389.612 9.92484 389.174 10.3933C388.739 10.8584 388.133 11.091 387.354 11.091C386.616 11.0977 386.019 10.8584 385.564 10.3731C385.113 9.88777 384.892 9.2457 384.902 8.44692C384.902 7.6178 385.118 6.97236 385.549 6.51062C385.984 6.04887 386.594 5.818 387.379 5.818ZM395.679 7.68352V11H394.288V8.0273C394.288 7.65656 394.223 7.38187 394.091 7.20324C393.96 7.02123 393.752 6.93023 393.469 6.93023C393.085 6.93023 392.805 7.05999 392.63 7.31951C392.455 7.57567 392.367 8.00539 392.367 8.6087V11H390.982V5.91405H392.044L392.231 6.56623H392.306C392.458 6.32356 392.669 6.13819 392.938 6.01011C393.211 5.88204 393.522 5.818 393.869 5.818C394.462 5.818 394.912 5.97809 395.219 6.29828C395.525 6.6151 395.679 7.07685 395.679 7.68352Z" fill="white"/>
</svg>
