<svg width="423" height="23" viewBox="0 0 423 23" fill="none" xmlns="http://www.w3.org/2000/svg">
<path d="M10 19H104" stroke="white" stroke-width="2" stroke-linecap="round" stroke-linejoin="round"/>
<path d="M113 19H207" stroke="white" stroke-width="2" stroke-linecap="round" stroke-linejoin="round"/>
<path d="M216 19H310" stroke="white" stroke-width="2" stroke-linecap="round" stroke-linejoin="round"/>
<path opacity="0.2" d="M319 19H413" stroke="white" stroke-width="2" stroke-linecap="round" stroke-linejoin="round"/>
<path d="M-1.74846e-07 19L6 15.5359L6 22.4641L-1.74846e-07 19Z" fill="white"/>
<path d="M-1.74846e-07 19L6 15.5359L6 22.4641L-1.74846e-07 19Z" fill="white"/>
<path d="M423 19L417 22.4641L417 15.5359L423 19Z" fill="white"/>
<path d="M423 19L417 22.4641L417 15.5359L423 19Z" fill="white"/>
<path d="M45.501 2.89062H46.9658V7.8125C46.9658 8.26497 46.8649 8.66536 46.6631 9.01367C46.4645 9.35872 46.1829 9.62565 45.8184 9.81445C45.4538 10.0033 45.042 10.0977 44.583 10.0977C43.8311 10.0977 43.2451 9.90723 42.8252 9.52637C42.4053 9.14225 42.1953 8.60026 42.1953 7.90039H43.6699C43.6699 8.2487 43.7432 8.50586 43.8896 8.67188C44.0361 8.83789 44.2673 8.9209 44.583 8.9209C44.863 8.9209 45.0859 8.82487 45.252 8.63281C45.418 8.44076 45.501 8.16732 45.501 7.8125V2.89062ZM47.9082 7.30957C47.9082 6.78548 48.0091 6.31836 48.2109 5.9082C48.4128 5.49805 48.7025 5.18066 49.0801 4.95605C49.4609 4.73145 49.902 4.61914 50.4033 4.61914C51.1162 4.61914 51.6973 4.83724 52.1465 5.27344C52.599 5.70964 52.8512 6.30208 52.9033 7.05078L52.9131 7.41211C52.9131 8.22266 52.6868 8.8737 52.2344 9.36523C51.7819 9.85352 51.1748 10.0977 50.4131 10.0977C49.6514 10.0977 49.0426 9.85352 48.5869 9.36523C48.1344 8.87695 47.9082 8.21289 47.9082 7.37305V7.30957ZM49.3193 7.41211C49.3193 7.91341 49.4137 8.29753 49.6025 8.56445C49.7913 8.82812 50.0615 8.95996 50.4131 8.95996C50.7549 8.95996 51.0218 8.82975 51.2139 8.56934C51.4059 8.30566 51.502 7.88574 51.502 7.30957C51.502 6.81803 51.4059 6.43717 51.2139 6.16699C51.0218 5.89681 50.7516 5.76172 50.4033 5.76172C50.0583 5.76172 49.7913 5.89681 49.6025 6.16699C49.4137 6.43392 49.3193 6.84896 49.3193 7.41211ZM55.2715 10H53.8555V4.7168H55.2715V10ZM53.7725 3.34961C53.7725 3.13802 53.8424 2.96387 53.9824 2.82715C54.1257 2.69043 54.3193 2.62207 54.5635 2.62207C54.8044 2.62207 54.9964 2.69043 55.1396 2.82715C55.2829 2.96387 55.3545 3.13802 55.3545 3.34961C55.3545 3.56445 55.2812 3.74023 55.1348 3.87695C54.9915 4.01367 54.8011 4.08203 54.5635 4.08203C54.3258 4.08203 54.1338 4.01367 53.9873 3.87695C53.8441 3.74023 53.7725 3.56445 53.7725 3.34961ZM57.7373 4.7168L57.7812 5.32715C58.1589 4.85514 58.665 4.61914 59.2998 4.61914C59.8597 4.61914 60.2764 4.78353 60.5498 5.1123C60.8232 5.44108 60.9632 5.93262 60.9697 6.58691V10H59.5586V6.62109C59.5586 6.32161 59.4935 6.10514 59.3633 5.97168C59.2331 5.83496 59.0166 5.7666 58.7139 5.7666C58.3167 5.7666 58.0189 5.93587 57.8203 6.27441V10H56.4092V4.7168H57.7373Z" fill="white"/>
<path d="M114.25 8.44692V11H112.839V4.34682H114.776C115.675 4.34682 116.343 4.51197 116.778 4.84227C117.216 5.16919 117.435 5.66801 117.435 6.33873C117.435 6.72969 117.327 7.07853 117.111 7.38524C116.899 7.68857 116.594 7.92787 116.196 8.10313C117.197 9.59623 117.849 10.5618 118.153 11H116.585L114.998 8.44692H114.25ZM114.25 5.50455V7.29929H114.705C115.15 7.29929 115.478 7.22514 115.691 7.07685C115.903 6.92855 116.009 6.69767 116.009 6.38423C116.009 6.07078 115.901 5.84665 115.686 5.71183C115.473 5.57364 115.136 5.50455 114.674 5.50455H114.25ZM121.954 7.88069C121.951 7.54028 121.863 7.2757 121.691 7.08696C121.519 6.89821 121.285 6.80384 120.989 6.80384C120.695 6.80384 120.464 6.89821 120.296 7.08696C120.127 7.27233 120.031 7.53691 120.008 7.88069H121.954ZM122.97 10.7321C122.492 10.9714 121.895 11.091 121.181 11.091C120.362 11.091 119.721 10.8669 119.26 10.4186C118.801 9.96697 118.572 9.31985 118.572 8.47725C118.572 7.63465 118.784 6.98079 119.209 6.51567C119.64 6.05056 120.222 5.818 120.953 5.818C121.688 5.818 122.256 6.02359 122.657 6.43478C123.058 6.84597 123.259 7.41052 123.259 8.12841V8.80081H119.977C119.991 9.19852 120.107 9.50859 120.326 9.73104C120.549 9.95012 120.855 10.0597 121.246 10.0597C121.829 10.0597 122.404 9.92653 122.97 9.66026V10.7321ZM127.396 8.36097C127.757 8.63397 127.937 9.02157 127.937 9.52376C127.937 10.026 127.755 10.4135 127.391 10.6866C127.027 10.9562 126.503 11.091 125.819 11.091C125.138 11.091 124.562 10.9933 124.09 10.7978V9.65015C124.349 9.77149 124.639 9.8726 124.959 9.95349C125.283 10.0344 125.568 10.0748 125.814 10.0748C126.316 10.0748 126.567 9.9299 126.567 9.64004C126.567 9.49511 126.5 9.37715 126.365 9.28615C126.23 9.19515 125.949 9.05696 125.521 8.87159C125.096 8.68621 124.789 8.52444 124.601 8.38625C124.418 8.24469 124.285 8.0846 124.201 7.90597C124.12 7.72396 124.08 7.50152 124.08 7.23862C124.08 6.78699 124.255 6.43815 124.606 6.19211C124.956 5.9427 125.445 5.818 126.072 5.818C126.702 5.818 127.305 5.95113 127.882 6.21739L127.462 7.2184C127.169 7.0937 126.916 7.00101 126.704 6.94034C126.495 6.87631 126.284 6.84429 126.072 6.84429C125.66 6.84429 125.455 6.95551 125.455 7.17796C125.455 7.30266 125.524 7.4122 125.662 7.50657C125.8 7.60094 126.075 7.7307 126.486 7.89585C126.901 8.061 127.204 8.21604 127.396 8.36097ZM130.402 11.1769V13.2396H129.017V5.91405H130.144L130.342 6.57128H130.402C130.733 6.06909 131.206 5.818 131.823 5.818C132.44 5.818 132.918 6.05056 133.259 6.51567C133.599 6.97742 133.769 7.6178 133.769 8.4368C133.773 9.25581 133.596 9.9063 133.239 10.3883C132.881 10.8669 132.406 11.1011 131.813 11.091C131.21 11.091 130.739 10.8736 130.402 10.4388H130.332C130.379 10.8804 130.402 11.1264 130.402 11.1769ZM132.354 8.43175C132.354 7.92619 132.276 7.55039 132.121 7.30435C131.966 7.05494 131.722 6.93023 131.388 6.93023C131.054 6.93023 130.808 7.0364 130.65 7.24874C130.492 7.46107 130.409 7.80822 130.402 8.29019V8.4368C130.402 8.97944 130.483 9.37041 130.645 9.60971C130.807 9.84901 131.065 9.96866 131.418 9.96866C132.042 9.96866 132.354 9.45635 132.354 8.43175ZM137.868 7.3094C137.703 7.05999 137.437 6.93529 137.069 6.93529C136.702 6.93529 136.436 7.05999 136.27 7.3094C136.105 7.55544 136.023 7.9363 136.023 8.45197C136.023 8.96427 136.107 9.34681 136.275 9.5996C136.444 9.85238 136.71 9.97877 137.074 9.97877C137.438 9.97877 137.703 9.85238 137.868 9.5996C138.037 9.34681 138.121 8.96427 138.121 8.45197C138.121 7.9363 138.037 7.55544 137.868 7.3094ZM137.084 5.818C137.822 5.80789 138.419 6.0455 138.874 6.53084C139.329 7.01281 139.55 7.6515 139.536 8.44692C139.536 9.27604 139.317 9.92484 138.879 10.3933C138.444 10.8584 137.838 11.091 137.059 11.091C136.321 11.0977 135.724 10.8584 135.269 10.3731C134.818 9.88777 134.597 9.2457 134.607 8.44692C134.607 7.6178 134.823 6.97236 135.254 6.51062C135.689 6.04887 136.299 5.818 137.084 5.818ZM145.384 7.68352V11H143.993V8.0273C143.993 7.65656 143.928 7.38187 143.796 7.20324C143.665 7.02123 143.457 6.93023 143.174 6.93023C142.79 6.93023 142.51 7.05999 142.335 7.31951C142.16 7.57567 142.072 8.00539 142.072 8.6087V11H140.687V5.91405H141.749L141.936 6.56623H142.012C142.163 6.32356 142.374 6.13819 142.644 6.01011C142.917 5.88204 143.227 5.818 143.574 5.818C144.167 5.818 144.617 5.97809 144.924 6.29828C145.23 6.6151 145.384 7.07685 145.384 7.68352ZM149.864 10.3428C149.547 10.8416 149.077 11.091 148.453 11.091C147.833 11.091 147.353 10.8601 147.012 10.3984C146.672 9.9299 146.502 9.28109 146.502 8.45197C146.502 7.62285 146.675 6.97742 147.022 6.51567C147.373 6.05056 147.86 5.818 148.483 5.818C149.107 5.818 149.587 6.06741 149.924 6.56623H149.97C149.899 6.18537 149.864 5.84665 149.864 5.55005V3.92214H151.254V11H150.192L149.924 10.3428H149.864ZM147.907 8.48231C147.907 9.48332 148.241 9.98382 148.908 9.98382C149.262 9.98382 149.522 9.88102 149.687 9.67543C149.855 9.46646 149.946 9.11594 149.96 8.62386V8.47725C149.96 7.93124 149.875 7.54028 149.707 7.30435C149.538 7.06505 149.264 6.9454 148.883 6.9454C148.573 6.9454 148.332 7.07853 148.16 7.34479C147.991 7.60768 147.907 7.98686 147.907 8.48231ZM158.068 5.51972V11H156.658V5.51972H154.853V4.34682H159.873V5.51972H158.068ZM163.083 7.3094C162.918 7.05999 162.651 6.93529 162.284 6.93529C161.917 6.93529 161.65 7.05999 161.485 7.3094C161.32 7.55544 161.238 7.9363 161.238 8.45197C161.238 8.96427 161.322 9.34681 161.49 9.5996C161.659 9.85238 161.925 9.97877 162.289 9.97877C162.653 9.97877 162.918 9.85238 163.083 9.5996C163.251 9.34681 163.336 8.96427 163.336 8.45197C163.336 7.9363 163.251 7.55544 163.083 7.3094ZM162.299 5.818C163.037 5.80789 163.634 6.0455 164.089 6.53084C164.544 7.01281 164.765 7.6515 164.751 8.44692C164.751 9.27604 164.532 9.92484 164.094 10.3933C163.659 10.8584 163.052 11.091 162.274 11.091C161.536 11.0977 160.939 10.8584 160.484 10.3731C160.033 9.88777 159.812 9.2457 159.822 8.44692C159.822 7.6178 160.038 6.97236 160.469 6.51062C160.904 6.04887 161.514 5.818 162.299 5.818ZM171.575 5.4186C171.016 5.4186 170.593 5.60735 170.306 5.98483C170.023 6.36232 169.882 6.92181 169.882 7.6633C169.882 9.15976 170.443 9.90799 171.565 9.90799C172.691 9.90799 173.254 9.15976 173.254 7.6633C173.254 6.16683 172.694 5.4186 171.575 5.4186ZM174.735 7.6633C174.735 8.4486 174.595 9.10583 174.315 9.63498C174.039 10.1641 173.633 10.5517 173.097 10.7978L174.7 12.5824H172.89L171.671 11.091H171.565C170.547 11.091 169.765 10.7961 169.219 10.2063C168.673 9.61645 168.4 8.7671 168.4 7.65824C168.4 6.54938 168.673 5.7034 169.219 5.12032C169.772 4.53724 170.559 4.2457 171.58 4.2457C172.602 4.2457 173.382 4.54061 173.921 5.13043C174.464 5.72026 174.735 6.56454 174.735 7.6633ZM180.666 11H179.604L179.417 10.3478H179.341C179.193 10.5871 178.982 10.7708 178.709 10.8989C178.436 11.027 178.126 11.091 177.779 11.091C177.186 11.091 176.736 10.9326 176.429 10.6158C176.126 10.2956 175.974 9.83384 175.974 9.23054V5.91405H177.359V8.88675C177.359 9.25413 177.425 9.52882 177.557 9.71082C177.688 9.89282 177.895 9.98382 178.178 9.98382C178.566 9.98382 178.846 9.85575 179.018 9.5996C179.193 9.34007 179.281 8.90866 179.281 8.30536V5.91405H180.666V11ZM185.196 7.88069C185.193 7.54028 185.105 7.2757 184.933 7.08696C184.762 6.89821 184.527 6.80384 184.231 6.80384C183.938 6.80384 183.707 6.89821 183.538 7.08696C183.37 7.27233 183.274 7.53691 183.25 7.88069H185.196ZM186.213 10.7321C185.734 10.9714 185.137 11.091 184.423 11.091C183.604 11.091 182.963 10.8669 182.502 10.4186C182.043 9.96697 181.814 9.31985 181.814 8.47725C181.814 7.63465 182.026 6.98079 182.451 6.51567C182.883 6.05056 183.464 5.818 184.195 5.818C184.93 5.818 185.498 6.02359 185.899 6.43478C186.3 6.84597 186.501 7.41052 186.501 8.12841V8.80081H183.22C183.233 9.19852 183.349 9.50859 183.568 9.73104C183.791 9.95012 184.098 10.0597 184.489 10.0597C185.072 10.0597 185.646 9.92653 186.213 9.66026V10.7321ZM190.638 8.36097C190.999 8.63397 191.179 9.02157 191.179 9.52376C191.179 10.026 190.997 10.4135 190.633 10.6866C190.269 10.9562 189.745 11.091 189.061 11.091C188.38 11.091 187.804 10.9933 187.332 10.7978V9.65015C187.592 9.77149 187.881 9.8726 188.202 9.95349C188.525 10.0344 188.81 10.0748 189.056 10.0748C189.558 10.0748 189.809 9.9299 189.809 9.64004C189.809 9.49511 189.742 9.37715 189.607 9.28615C189.472 9.19515 189.191 9.05696 188.763 8.87159C188.338 8.68621 188.031 8.52444 187.843 8.38625C187.661 8.24469 187.528 8.0846 187.443 7.90597C187.362 7.72396 187.322 7.50152 187.322 7.23862C187.322 6.78699 187.497 6.43815 187.848 6.19211C188.198 5.9427 188.687 5.818 189.314 5.818C189.944 5.818 190.547 5.95113 191.124 6.21739L190.704 7.2184C190.411 7.0937 190.158 7.00101 189.946 6.94034C189.737 6.87631 189.526 6.84429 189.314 6.84429C188.903 6.84429 188.697 6.95551 188.697 7.17796C188.697 7.30266 188.766 7.4122 188.904 7.50657C189.043 7.60094 189.317 7.7307 189.728 7.89585C190.143 8.061 190.446 8.21604 190.638 8.36097ZM193.796 9.40748C193.796 9.5996 193.85 9.74452 193.958 9.84226C194.066 9.93664 194.229 9.98382 194.448 9.98382C194.667 9.98382 194.944 9.93158 195.277 9.8271V10.8584C194.934 11.0135 194.497 11.091 193.968 11.091C193.442 11.091 193.051 10.9528 192.795 10.6764C192.539 10.4001 192.411 9.97708 192.411 9.40748V6.95551H191.744V6.36906L192.507 5.90394L192.911 4.83215H193.796V5.91405H195.222V6.95551H193.796V9.40748ZM197.687 5.91405V11H196.302V5.91405H197.687ZM197 5.2821C196.494 5.2821 196.242 5.05629 196.242 4.60465C196.242 4.14965 196.493 3.92214 196.995 3.92214C197.5 3.92214 197.753 4.14796 197.753 4.5996C197.753 4.81867 197.689 4.98719 197.561 5.10516C197.433 5.22312 197.246 5.2821 197 5.2821ZM202.097 7.3094C201.931 7.05999 201.665 6.93529 201.298 6.93529C200.93 6.93529 200.664 7.05999 200.499 7.3094C200.334 7.55544 200.251 7.9363 200.251 8.45197C200.251 8.96427 200.335 9.34681 200.504 9.5996C200.673 9.85238 200.939 9.97877 201.303 9.97877C201.667 9.97877 201.931 9.85238 202.097 9.5996C202.265 9.34681 202.349 8.96427 202.349 8.45197C202.349 7.9363 202.265 7.55544 202.097 7.3094ZM201.313 5.818C202.051 5.80789 202.648 6.0455 203.103 6.53084C203.558 7.01281 203.778 7.6515 203.765 8.44692C203.765 9.27604 203.546 9.92484 203.108 10.3933C202.673 10.8584 202.066 11.091 201.288 11.091C200.549 11.0977 199.953 10.8584 199.498 10.3731C199.046 9.88777 198.826 9.2457 198.836 8.44692C198.836 7.6178 199.051 6.97236 199.483 6.51062C199.918 6.04887 200.528 5.818 201.313 5.818ZM209.612 7.68352V11H208.222V8.0273C208.222 7.65656 208.156 7.38187 208.025 7.20324C207.893 7.02123 207.686 6.93023 207.403 6.93023C207.019 6.93023 206.739 7.05999 206.564 7.31951C206.388 7.57567 206.301 8.00539 206.301 8.6087V11H204.916V5.91405H205.977L206.164 6.56623H206.24C206.392 6.32356 206.602 6.13819 206.872 6.01011C207.145 5.88204 207.455 5.818 207.802 5.818C208.395 5.818 208.845 5.97809 209.152 6.29828C209.459 6.6151 209.612 7.07685 209.612 7.68352Z" fill="white"/>
<path d="M239.25 11H237.839V4.34682H239.25V11ZM245.511 7.68352V11H244.12V8.0273C244.12 7.65656 244.055 7.38187 243.923 7.20324C243.792 7.02123 243.584 6.93023 243.301 6.93023C242.917 6.93023 242.637 7.05999 242.462 7.31951C242.287 7.57567 242.199 8.00539 242.199 8.6087V11H240.814V5.91405H241.876L242.063 6.56623H242.139C242.29 6.32356 242.501 6.13819 242.77 6.01011C243.043 5.88204 243.354 5.818 243.701 5.818C244.294 5.818 244.744 5.97809 245.051 6.29828C245.357 6.6151 245.511 7.07685 245.511 7.68352ZM249.748 5.91405V6.95551H248.55V11H247.159V6.95551H246.396V6.28817L247.159 5.91405V5.53994C247.159 4.96023 247.303 4.53724 247.589 4.27098C247.876 4.00472 248.332 3.87159 248.959 3.87159C249.438 3.87159 249.863 3.94237 250.233 4.08392L249.879 5.10516C249.596 5.01753 249.349 4.97371 249.136 4.97371C248.927 4.97371 248.777 5.02932 248.686 5.14055C248.595 5.25177 248.55 5.40344 248.55 5.59555V5.91405H249.748ZM253.503 7.3094C253.338 7.05999 253.071 6.93529 252.704 6.93529C252.337 6.93529 252.07 7.05999 251.905 7.3094C251.74 7.55544 251.657 7.9363 251.657 8.45197C251.657 8.96427 251.742 9.34681 251.91 9.5996C252.079 9.85238 252.345 9.97877 252.709 9.97877C253.073 9.97877 253.338 9.85238 253.503 9.5996C253.671 9.34681 253.756 8.96427 253.756 8.45197C253.756 7.9363 253.671 7.55544 253.503 7.3094ZM252.719 5.818C253.457 5.80789 254.054 6.0455 254.509 6.53084C254.964 7.01281 255.185 7.6515 255.171 8.44692C255.171 9.27604 254.952 9.92484 254.514 10.3933C254.079 10.8584 253.472 11.091 252.694 11.091C251.956 11.0977 251.359 10.8584 250.904 10.3731C250.453 9.88777 250.232 9.2457 250.242 8.44692C250.242 7.6178 250.458 6.97236 250.889 6.51062C251.324 6.04887 251.934 5.818 252.719 5.818ZM259.163 5.818C259.338 5.818 259.493 5.83148 259.628 5.85844L259.527 7.15773C259.412 7.1274 259.276 7.11223 259.118 7.11223C258.673 7.11223 258.325 7.22683 258.076 7.45602C257.83 7.68183 257.707 8.00034 257.707 8.41153V11H256.322V5.91405H257.373L257.576 6.76845H257.646C257.808 6.4786 258.024 6.24772 258.293 6.07583C258.563 5.90394 258.853 5.818 259.163 5.818ZM265.105 8.44692V11H263.715V8.0273C263.715 7.65656 263.653 7.38187 263.528 7.20324C263.403 7.02123 263.211 6.93023 262.952 6.93023C262.598 6.93023 262.34 7.05999 262.178 7.31951C262.016 7.57567 261.936 8.00539 261.936 8.6087V11H260.55V5.91405H261.612L261.799 6.56623H261.875C262.01 6.3303 262.205 6.14661 262.461 6.01517C262.721 5.88372 263.017 5.818 263.351 5.818C264.116 5.818 264.632 6.06741 264.898 6.56623H265.024C265.156 6.32693 265.355 6.14324 265.621 6.01517C265.887 5.88372 266.189 5.818 266.526 5.818C267.112 5.818 267.551 5.96798 267.84 6.26795C268.13 6.56791 268.275 7.03977 268.275 7.68352V11H266.885V8.0273C266.885 7.65656 266.823 7.38187 266.698 7.20324C266.573 7.02123 266.381 6.93023 266.122 6.93023C265.778 6.93023 265.522 7.05325 265.353 7.29929C265.188 7.54196 265.105 7.9245 265.105 8.44692ZM273.902 11H272.931L272.663 10.3074H272.628C272.392 10.604 272.151 10.8096 271.905 10.9242C271.659 11.0354 271.337 11.091 270.939 11.091C270.447 11.091 270.061 10.9511 269.782 10.6714C269.502 10.3883 269.362 9.98551 269.362 9.46309C269.362 8.94068 269.547 8.54971 269.918 8.29019C270.292 8.03067 270.865 7.88743 271.637 7.86047L272.522 7.83519V7.61274C272.522 7.09707 272.257 6.83923 271.728 6.83923C271.327 6.83923 270.85 6.96057 270.297 7.20324L269.837 6.26795C270.42 5.96124 271.062 5.80789 271.763 5.80789C272.468 5.80789 273 5.95955 273.361 6.26289C273.722 6.56286 273.902 7.01281 273.902 7.61274V11ZM272.522 9.0637V8.64408L271.986 8.65925C271.578 8.67273 271.276 8.74688 271.081 8.8817C270.885 9.01314 270.788 9.21537 270.788 9.48837C270.788 9.87934 271.012 10.0748 271.46 10.0748C271.784 10.0748 272.041 9.98382 272.234 9.80182C272.426 9.61645 272.522 9.37041 272.522 9.0637ZM276.863 9.40748C276.863 9.5996 276.916 9.74452 277.024 9.84226C277.132 9.93664 277.296 9.98382 277.515 9.98382C277.734 9.98382 278.01 9.93158 278.344 9.8271V10.8584C278 11.0135 277.564 11.091 277.034 11.091C276.509 11.091 276.118 10.9528 275.862 10.6764C275.605 10.4001 275.477 9.97708 275.477 9.40748V6.95551H274.81V6.36906L275.573 5.90394L275.978 4.83215H276.863V5.91405H278.288V6.95551H276.863V9.40748ZM280.754 5.91405V11H279.369V5.91405H280.754ZM280.066 5.2821C279.561 5.2821 279.308 5.05629 279.308 4.60465C279.308 4.14965 279.559 3.92214 280.061 3.92214C280.567 3.92214 280.82 4.14796 280.82 4.5996C280.82 4.81867 280.756 4.98719 280.627 5.10516C280.499 5.22312 280.312 5.2821 280.066 5.2821ZM285.163 7.3094C284.998 7.05999 284.731 6.93529 284.364 6.93529C283.997 6.93529 283.73 7.05999 283.565 7.3094C283.4 7.55544 283.318 7.9363 283.318 8.45197C283.318 8.96427 283.402 9.34681 283.57 9.5996C283.739 9.85238 284.005 9.97877 284.369 9.97877C284.733 9.97877 284.998 9.85238 285.163 9.5996C285.331 9.34681 285.416 8.96427 285.416 8.45197C285.416 7.9363 285.331 7.55544 285.163 7.3094ZM284.379 5.818C285.117 5.80789 285.714 6.0455 286.169 6.53084C286.624 7.01281 286.845 7.6515 286.831 8.44692C286.831 9.27604 286.612 9.92484 286.174 10.3933C285.739 10.8584 285.133 11.091 284.354 11.091C283.616 11.0977 283.019 10.8584 282.564 10.3731C282.113 9.88777 281.892 9.2457 281.902 8.44692C281.902 7.6178 282.118 6.97236 282.549 6.51062C282.984 6.04887 283.594 5.818 284.379 5.818ZM292.679 7.68352V11H291.288V8.0273C291.288 7.65656 291.223 7.38187 291.091 7.20324C290.96 7.02123 290.752 6.93023 290.469 6.93023C290.085 6.93023 289.805 7.05999 289.63 7.31951C289.455 7.57567 289.367 8.00539 289.367 8.6087V11H287.982V5.91405H289.044L289.231 6.56623H289.306C289.458 6.32356 289.669 6.13819 289.938 6.01011C290.211 5.88204 290.522 5.818 290.869 5.818C291.462 5.818 291.912 5.97809 292.219 6.29828C292.525 6.6151 292.679 7.07685 292.679 7.68352Z" fill="white"/>
<path opacity="0.2" d="M357.372 8.30536L358.631 4.34682H360.057L357.797 11H356.255L354 4.34682H355.426L356.674 8.30536C356.735 8.51095 356.804 8.77553 356.882 9.09909C356.963 9.42265 357.011 9.64678 357.028 9.77149C357.065 9.46815 357.18 8.97944 357.372 8.30536ZM362.168 5.91405V11H360.783V5.91405H362.168ZM361.48 5.2821C360.975 5.2821 360.722 5.05629 360.722 4.60465C360.722 4.14965 360.973 3.92214 361.475 3.92214C361.981 3.92214 362.234 4.14796 362.234 4.5996C362.234 4.81867 362.17 4.98719 362.042 5.10516C361.913 5.22312 361.726 5.2821 361.48 5.2821ZM366.698 7.88069C366.695 7.54028 366.607 7.2757 366.435 7.08696C366.264 6.89821 366.029 6.80384 365.733 6.80384C365.439 6.80384 365.209 6.89821 365.04 7.08696C364.872 7.27233 364.775 7.53691 364.752 7.88069H366.698ZM367.714 10.7321C367.236 10.9714 366.639 11.091 365.925 11.091C365.106 11.091 364.465 10.8669 364.004 10.4186C363.545 9.96697 363.316 9.31985 363.316 8.47725C363.316 7.63465 363.528 6.98079 363.953 6.51567C364.385 6.05056 364.966 5.818 365.697 5.818C366.432 5.818 367 6.02359 367.401 6.43478C367.802 6.84597 368.003 7.41052 368.003 8.12841V8.80081H364.722C364.735 9.19852 364.851 9.50859 365.07 9.73104C365.293 9.95012 365.6 10.0597 365.991 10.0597C366.574 10.0597 367.148 9.92653 367.714 9.66026V10.7321ZM374.639 11H373.128L372.738 9.22042L372.208 6.97573H372.177L371.247 11H369.756L368.31 5.91405H369.695L370.281 8.1638C370.369 8.53792 370.463 9.09572 370.565 9.83721H370.595C370.605 9.5878 370.683 9.09235 370.827 8.35086L371.454 5.91405H372.981L373.578 8.35086C373.719 9.03168 373.797 9.52713 373.81 9.83721H373.836C373.862 9.65184 373.911 9.36198 373.982 8.96764C374.053 8.56994 374.103 8.30199 374.134 8.1638L374.746 5.91405H376.106L374.639 11Z" fill="white"/>
</svg>
