<svg width="154" height="23" viewBox="0 0 154 23" fill="none" xmlns="http://www.w3.org/2000/svg">
<path d="M16.2046 15.5713C15.9686 17.7425 15.1898 19.404 13.8682 20.5557C12.556 21.7074 10.8049 22.2832 8.61475 22.2832C7.08545 22.2832 5.73079 21.9009 4.55078 21.1362C3.38021 20.3716 2.47396 19.2907 1.83203 17.8936C1.1901 16.487 0.864421 14.8822 0.85498 13.0791V10.4028C0.85498 8.57145 1.17594 6.94775 1.81787 5.53174C2.4598 4.11572 3.38021 3.02539 4.5791 2.26074C5.78743 1.48665 7.17513 1.09961 8.74219 1.09961C10.9512 1.09961 12.6929 1.69906 13.9673 2.89795C15.2511 4.0874 15.9969 5.7347 16.2046 7.83984H14.4487C14.0145 4.33757 12.1123 2.58643 8.74219 2.58643C6.87305 2.58643 5.38151 3.28499 4.26758 4.68213C3.16309 6.07926 2.61084 8.00977 2.61084 10.4736V12.9941C2.61084 15.373 3.14893 17.2705 4.2251 18.6865C5.31071 20.1025 6.77393 20.8105 8.61475 20.8105C10.4367 20.8105 11.8102 20.3763 12.7354 19.5078C13.6605 18.6299 14.2316 17.3177 14.4487 15.5713H16.2046ZM29.7134 22C29.5435 21.5186 29.4349 20.8058 29.3877 19.8618C28.793 20.6359 28.033 21.2354 27.1079 21.6602C26.1922 22.0755 25.2199 22.2832 24.1909 22.2832C22.7183 22.2832 21.5241 21.8726 20.6084 21.0513C19.7021 20.23 19.249 19.1916 19.249 17.936C19.249 16.4445 19.8674 15.2645 21.104 14.396C22.3501 13.5275 24.0824 13.0933 26.3008 13.0933H29.3735V11.3516C29.3735 10.2565 29.0337 9.39746 28.354 8.77441C27.6838 8.14193 26.702 7.82568 25.4087 7.82568C24.2287 7.82568 23.2516 8.12777 22.4775 8.73193C21.7035 9.3361 21.3164 10.063 21.3164 10.9126L19.6172 10.8984C19.6172 9.68066 20.1836 8.62809 21.3164 7.74072C22.4492 6.84391 23.8416 6.39551 25.4937 6.39551C27.2023 6.39551 28.5475 6.82503 29.5293 7.68408C30.5205 8.53369 31.0303 9.72314 31.0586 11.2524V18.5024C31.0586 19.9845 31.2144 21.0938 31.5259 21.8301V22H29.7134ZM24.3892 20.7822C25.522 20.7822 26.5321 20.5085 27.4194 19.9609C28.3162 19.4134 28.9676 18.6818 29.3735 17.7661V14.396H26.3433C24.6535 14.4149 23.3319 14.7264 22.3784 15.3306C21.425 15.9253 20.9482 16.7466 20.9482 17.7944C20.9482 18.6535 21.2645 19.3662 21.897 19.9326C22.5389 20.499 23.3696 20.7822 24.3892 20.7822ZM42.6699 8.12305C42.3112 8.05697 41.9289 8.02393 41.5229 8.02393C40.4657 8.02393 39.5688 8.32129 38.8325 8.91602C38.1056 9.5013 37.5864 10.3556 37.2749 11.479V22H35.5898V6.67871H37.2466L37.2749 9.11426C38.1717 7.30176 39.6113 6.39551 41.5938 6.39551C42.0658 6.39551 42.4386 6.45687 42.7124 6.57959L42.6699 8.12305ZM50.458 17.0015L53.3042 6.67871H57.5806L52.4121 22H48.5039L43.3354 6.67871H47.6118L50.458 17.0015ZM63.7119 22H59.6055V6.67871H63.7119V22ZM59.3647 2.71387C59.3647 2.10026 59.5677 1.59521 59.9736 1.19873C60.389 0.802246 60.9507 0.604004 61.6587 0.604004C62.3573 0.604004 62.9142 0.802246 63.3296 1.19873C63.745 1.59521 63.9526 2.10026 63.9526 2.71387C63.9526 3.33691 63.7402 3.84668 63.3154 4.24316C62.9001 4.63965 62.3478 4.83789 61.6587 4.83789C60.9696 4.83789 60.4126 4.63965 59.9878 4.24316C59.5724 3.84668 59.3647 3.33691 59.3647 2.71387ZM66.459 14.1978C66.459 12.6779 66.7516 11.3232 67.3369 10.1338C67.9222 8.94434 68.7624 8.02393 69.8574 7.37256C70.9619 6.72119 72.241 6.39551 73.6948 6.39551C75.7622 6.39551 77.4473 7.02799 78.75 8.29297C80.0622 9.55794 80.7938 11.276 80.9448 13.4473L80.9731 14.4951C80.9731 16.8457 80.3171 18.7337 79.0049 20.1592C77.6927 21.5752 75.9321 22.2832 73.7231 22.2832C71.5142 22.2832 69.7489 21.5752 68.4272 20.1592C67.1151 18.7432 66.459 16.8174 66.459 14.3818V14.1978ZM70.5513 14.4951C70.5513 15.9489 70.825 17.0628 71.3726 17.8369C71.9201 18.6016 72.7036 18.9839 73.7231 18.9839C74.7144 18.9839 75.4884 18.6063 76.0454 17.8511C76.6024 17.0864 76.8809 15.8687 76.8809 14.1978C76.8809 12.7723 76.6024 11.6678 76.0454 10.8843C75.4884 10.1007 74.7049 9.70898 73.6948 9.70898C72.6942 9.70898 71.9201 10.1007 71.3726 10.8843C70.825 11.6584 70.5513 12.862 70.5513 14.4951ZM87.8125 22H83.7061V0.25H87.8125V22ZM100.075 22C99.8864 21.6318 99.7495 21.174 99.6646 20.6265C98.6733 21.731 97.3848 22.2832 95.7988 22.2832C94.2979 22.2832 93.0518 21.849 92.0605 20.9805C91.0788 20.112 90.5879 19.0169 90.5879 17.6953C90.5879 16.0716 91.1873 14.8255 92.3862 13.957C93.5946 13.0885 95.3363 12.6496 97.6113 12.6401H99.4946V11.7622C99.4946 11.0542 99.3105 10.4878 98.9424 10.063C98.5837 9.63818 98.0125 9.42578 97.229 9.42578C96.5399 9.42578 95.9971 9.59098 95.6006 9.92139C95.2135 10.2518 95.02 10.7049 95.02 11.2808H90.9277C90.9277 10.3934 91.2015 9.5721 91.749 8.81689C92.2965 8.06169 93.0706 7.47168 94.0713 7.04688C95.0719 6.61263 96.1953 6.39551 97.4414 6.39551C99.3294 6.39551 100.826 6.87223 101.93 7.82568C103.044 8.76969 103.601 10.1007 103.601 11.8188V18.46C103.611 19.9137 103.813 21.0135 104.21 21.7593V22H100.075ZM96.6909 19.1538C97.2951 19.1538 97.8521 19.0216 98.3618 18.7573C98.8716 18.4836 99.2492 18.1201 99.4946 17.667V15.0332H97.9653C95.9168 15.0332 94.8265 15.7412 94.6943 17.1572L94.6802 17.3979C94.6802 17.9077 94.8595 18.3278 95.2183 18.6582C95.577 18.9886 96.0679 19.1538 96.6909 19.1538ZM111.644 2.91211V6.67871H114.264V9.68066H111.644V17.3271C111.644 17.8936 111.753 18.2995 111.97 18.5449C112.187 18.7904 112.602 18.9131 113.216 18.9131C113.669 18.9131 114.07 18.88 114.419 18.814V21.915C113.617 22.1605 112.791 22.2832 111.941 22.2832C109.072 22.2832 107.608 20.8341 107.552 17.936V9.68066H105.314V6.67871H107.552V2.91211H111.644ZM120.862 22H116.756V6.67871H120.862V22ZM116.515 2.71387C116.515 2.10026 116.718 1.59521 117.124 1.19873C117.539 0.802246 118.101 0.604004 118.809 0.604004C119.508 0.604004 120.065 0.802246 120.48 1.19873C120.895 1.59521 121.103 2.10026 121.103 2.71387C121.103 3.33691 120.891 3.84668 120.466 4.24316C120.05 4.63965 119.498 4.83789 118.809 4.83789C118.12 4.83789 117.563 4.63965 117.138 4.24316C116.723 3.84668 116.515 3.33691 116.515 2.71387ZM123.609 14.1978C123.609 12.6779 123.902 11.3232 124.487 10.1338C125.073 8.94434 125.913 8.02393 127.008 7.37256C128.112 6.72119 129.391 6.39551 130.845 6.39551C132.913 6.39551 134.598 7.02799 135.9 8.29297C137.213 9.55794 137.944 11.276 138.095 13.4473L138.124 14.4951C138.124 16.8457 137.467 18.7337 136.155 20.1592C134.843 21.5752 133.083 22.2832 130.874 22.2832C128.665 22.2832 126.899 21.5752 125.578 20.1592C124.265 18.7432 123.609 16.8174 123.609 14.3818V14.1978ZM127.702 14.4951C127.702 15.9489 127.975 17.0628 128.523 17.8369C129.07 18.6016 129.854 18.9839 130.874 18.9839C131.865 18.9839 132.639 18.6063 133.196 17.8511C133.753 17.0864 134.031 15.8687 134.031 14.1978C134.031 12.7723 133.753 11.6678 133.196 10.8843C132.639 10.1007 131.855 9.70898 130.845 9.70898C129.845 9.70898 129.07 10.1007 128.523 10.8843C127.975 11.6584 127.702 12.862 127.702 14.4951ZM144.411 6.67871L144.538 8.44873C145.633 7.07992 147.101 6.39551 148.942 6.39551C150.566 6.39551 151.774 6.87223 152.567 7.82568C153.36 8.77913 153.766 10.2046 153.785 12.1021V22H149.692V12.2012C149.692 11.3327 149.504 10.7049 149.126 10.3179C148.748 9.92139 148.121 9.72314 147.243 9.72314C146.091 9.72314 145.227 10.214 144.651 11.1958V22H140.559V6.67871H144.411Z" fill="white"/>
</svg>
