<svg width="300" height="48" viewBox="0 0 300 48" fill="none" xmlns="http://www.w3.org/2000/svg">
<path d="M13.999 24.6916C13.999 26.451 13.362 27.821 12.088 28.8018C10.8241 29.7826 9.04955 30.273 6.76441 30.273C4.48938 30.273 2.71486 29.9697 1.44085 29.363V27.1183C3.24065 27.8665 5.091 28.2406 6.99191 28.2406C8.51871 28.2406 9.67644 27.9525 10.4651 27.3761C11.2639 26.7998 11.6633 25.9757 11.6633 24.9039C11.6633 24.2164 11.5217 23.6552 11.2386 23.2204C10.9656 22.7856 10.5005 22.3761 9.84328 21.9919C9.18605 21.6077 8.2002 21.183 6.88574 20.7179C5.03539 20.0607 3.70576 19.277 2.89687 18.367C2.09808 17.457 1.69869 16.2487 1.69869 14.7422C1.69869 13.2356 2.27503 12.0273 3.4277 11.1173C4.60061 10.2073 6.15268 9.75227 8.08392 9.75227C10.0253 9.75227 11.8301 10.1163 13.4985 10.8443L12.7705 12.8766C11.1223 12.179 9.52477 11.8301 7.97776 11.8301C6.74419 11.8301 5.77856 12.0981 5.08089 12.634C4.39333 13.1598 4.04955 13.8878 4.04955 14.818C4.04955 15.5258 4.17088 16.092 4.41355 16.5167C4.66633 16.9414 5.10111 17.3509 5.7179 17.7452C6.3549 18.1294 7.28514 18.5339 8.50859 18.9585C10.6117 19.7068 12.0475 20.5106 12.816 21.3701C13.6047 22.2194 13.999 23.3266 13.999 24.6916ZM20.1898 25.6016C20.1898 26.5015 20.3971 27.1941 20.8116 27.6795C21.2363 28.1648 21.8126 28.4075 22.5406 28.4075C23.2788 28.4075 23.9764 28.3165 24.6337 28.1345V29.8635C24.4011 29.9747 24.032 30.0708 23.5265 30.1517C23.031 30.2326 22.6064 30.273 22.2525 30.273C19.3607 30.273 17.9148 28.7513 17.9148 25.7078V16.8049H15.7762V15.7128L17.9148 14.7725L18.8703 11.5723H20.1898V15.0455H24.5275V16.8049H20.1898V25.6016ZM33.9455 30.273C31.7312 30.273 29.9819 29.6006 28.6978 28.2558C27.4238 26.911 26.7868 25.0354 26.7868 22.6289C26.7868 20.2224 27.3783 18.3114 28.5613 16.8959C29.7645 15.4803 31.3318 14.7725 33.263 14.7725C35.2044 14.7725 36.7211 15.3893 37.8131 16.6229C38.9051 17.8564 39.4511 19.4793 39.4511 21.4914V22.9323H29.1377C29.1882 24.6815 29.6331 26.0162 30.4723 26.9363C31.3116 27.8463 32.5199 28.3013 34.0972 28.3013C35.6847 28.3013 37.2519 27.9626 38.7989 27.2851V29.3023C38.0204 29.6461 37.2671 29.8938 36.5391 30.0455C35.8111 30.1972 34.9466 30.273 33.9455 30.273ZM37.0244 21.0819C37.0244 19.6562 36.7059 18.5642 36.0689 17.8059C35.4319 17.0475 34.5168 16.6684 33.3237 16.6684C32.1407 16.6684 31.1852 17.0576 30.4572 17.8362C29.7393 18.6148 29.3197 19.6967 29.1983 21.0819H37.0244ZM53.0167 26.815C53.7549 25.7735 54.1239 24.3276 54.1239 22.4772C54.1239 20.6269 53.7599 19.2012 53.0319 18.2002C52.3039 17.1992 51.2726 16.6987 49.9379 16.6987C48.4212 16.6987 47.3191 17.1183 46.6315 17.9575C45.9439 18.7968 45.59 20.1466 45.5698 22.0071V22.5076C45.5698 24.6107 45.9187 26.1173 46.6163 27.0273C47.314 27.9272 48.4364 28.3771 49.9834 28.3771C51.2776 28.3771 52.2887 27.8564 53.0167 26.815ZM54.8519 16.8049C55.9338 18.1598 56.4748 20.0657 56.4748 22.5228C56.4748 24.9798 55.9237 26.8857 54.8216 28.2406C53.7296 29.5956 52.1775 30.273 50.1654 30.273C48.1634 30.273 46.6315 29.5399 45.5698 28.0738H45.403C45.5142 28.9939 45.5698 29.8231 45.5698 30.5612V36.7189H43.2948V15.0455H45.1452L45.4637 17.093H45.5698C46.6618 15.546 48.2089 14.7725 50.2109 14.7725C52.223 14.7725 53.77 15.4499 54.8519 16.8049ZM298.078 27.8918V30H284.959V28.0435L290.206 22.7654C291.834 21.1274 292.891 19.9747 293.376 19.3074C294.398 17.9221 294.908 16.542 294.908 15.1668C294.908 14.095 294.585 13.2508 293.938 12.634C293.29 12.0071 292.396 11.6936 291.253 11.6936C290.414 11.6936 289.63 11.8301 288.902 12.1031C288.174 12.366 287.345 12.8615 286.415 13.5895L285.217 12.0576C287.057 10.5207 289.059 9.75227 291.223 9.75227C293.083 9.75227 294.549 10.2326 295.621 11.1931C296.693 12.1436 297.229 13.4328 297.229 15.0607C297.229 16.3448 296.865 17.6138 296.137 18.8675C295.419 20.1112 294.099 21.6633 292.178 23.5238L287.81 27.7856V27.8918H298.078Z" fill="white"/>
<path d="M70 25H279" stroke="white"/>
</svg>
