<svg width="114" height="32" viewBox="0 0 114 32" fill="none" xmlns="http://www.w3.org/2000/svg">
<path d="M9.33266 16.4611C9.33266 17.634 8.90799 18.5474 8.05865 19.2012C7.21604 19.8551 6.03303 20.182 4.50961 20.182C2.99292 20.182 1.80991 19.9798 0.960566 19.5753V18.0789C2.16043 18.5777 3.394 18.8271 4.66127 18.8271C5.67914 18.8271 6.45096 18.635 6.97674 18.2508C7.50927 17.8665 7.77553 17.3172 7.77553 16.6026C7.77553 16.1443 7.68116 15.7701 7.49242 15.4803C7.31041 15.1904 7.00034 14.9174 6.56218 14.6613C6.12403 14.4051 5.4668 14.122 4.5905 13.8119C3.35693 13.3738 2.47051 12.8514 1.93124 12.2447C1.39872 11.638 1.13246 10.8325 1.13246 9.82811C1.13246 8.82373 1.51668 8.0182 2.28514 7.41153C3.06707 6.80485 4.10179 6.50152 5.38928 6.50152C6.68352 6.50152 7.88675 6.74419 8.99899 7.22952L8.51365 8.58443C7.4149 8.11931 6.34985 7.88675 5.3185 7.88675C4.49612 7.88675 3.85238 8.06539 3.38726 8.42265C2.92888 8.77317 2.6997 9.25851 2.6997 9.87867C2.6997 10.3505 2.78059 10.728 2.94237 11.0111C3.11089 11.2942 3.40074 11.5672 3.81193 11.8301C4.2366 12.0863 4.85676 12.3559 5.6724 12.639C7.07449 13.1378 8.03168 13.6737 8.54398 14.2467C9.06977 14.8129 9.33266 15.5511 9.33266 16.4611ZM13.4599 17.0677C13.4599 17.6677 13.598 18.1294 13.8744 18.453C14.1575 18.7765 14.5418 18.9383 15.0271 18.9383C15.5192 18.9383 15.9843 18.8777 16.4224 18.7563V19.909C16.2674 19.9831 16.0214 20.0472 15.6843 20.1011C15.354 20.155 15.0709 20.182 14.835 20.182C12.9071 20.182 11.9432 19.1675 11.9432 17.1385V11.2032H10.5175V10.4752L11.9432 9.84833L12.5802 7.71486H13.4599V10.0303H16.3517V11.2032H13.4599V17.0677ZM22.6304 20.182C21.1541 20.182 19.988 19.7337 19.1319 18.8372C18.2825 17.9407 17.8579 16.6903 17.8579 15.0859C17.8579 13.4816 18.2522 12.2076 19.0409 11.2639C19.843 10.3202 20.8879 9.84833 22.1754 9.84833C23.4696 9.84833 24.4807 10.2595 25.2087 11.0819C25.9367 11.9043 26.3007 12.9862 26.3007 14.3276V15.2882H19.4251C19.4588 16.4543 19.7554 17.3441 20.3149 17.9575C20.8744 18.5642 21.6799 18.8675 22.7315 18.8675C23.7898 18.8675 24.8346 18.6417 25.866 18.1901V19.5349C25.3469 19.7641 24.8447 19.9292 24.3594 20.0303C23.874 20.1314 23.2977 20.182 22.6304 20.182ZM24.6829 14.0546C24.6829 13.1041 24.4706 12.3761 24.0459 11.8706C23.6213 11.365 23.0112 11.1122 22.2158 11.1122C21.4271 11.1122 20.7901 11.3718 20.3048 11.8908C19.8262 12.4098 19.5464 13.1311 19.4655 14.0546H24.6829ZM35.3445 17.8766C35.8366 17.1823 36.0826 16.2184 36.0826 14.9848C36.0826 13.7513 35.8399 12.8008 35.3546 12.1335C34.8693 11.4661 34.1817 11.1325 33.2919 11.1325C32.2808 11.1325 31.546 11.4122 31.0877 11.9717C30.6293 12.5312 30.3934 13.4311 30.3799 14.6714V15.0051C30.3799 16.4071 30.6124 17.4115 31.0776 18.0182C31.5427 18.6181 32.2909 18.9181 33.3222 18.9181C34.1851 18.9181 34.8592 18.5709 35.3445 17.8766ZM36.568 11.2032C37.2892 12.1065 37.6499 13.3771 37.6499 15.0152C37.6499 16.6532 37.2825 17.9238 36.5477 18.8271C35.8197 19.7304 34.785 20.182 33.4436 20.182C32.1089 20.182 31.0877 19.6933 30.3799 18.7159H30.2687C30.3428 19.3293 30.3799 19.882 30.3799 20.3741V24.4793H28.8632V10.0303H30.0968L30.3091 11.3953H30.3799C31.1079 10.364 32.1392 9.84833 33.4739 9.84833C34.8153 9.84833 35.8467 10.3 36.568 11.2032ZM112.781 18.5945V20H104.035V18.6957L107.533 15.1769C108.619 14.0849 109.323 13.3165 109.647 12.8716C110.328 11.9481 110.668 11.028 110.668 10.1112C110.668 9.3967 110.452 8.83384 110.021 8.42265C109.589 8.00472 108.993 7.79575 108.231 7.79575C107.672 7.79575 107.149 7.88675 106.664 8.06876C106.179 8.24402 105.626 8.57432 105.006 9.05966L104.207 8.03842C105.434 7.01382 106.768 6.50152 108.211 6.50152C109.451 6.50152 110.429 6.82171 111.143 7.46208C111.858 8.09572 112.215 8.95517 112.215 10.0404C112.215 10.8965 111.972 11.7425 111.487 12.5784C111.008 13.4075 110.129 14.4422 108.848 15.6825L105.936 18.5238V18.5945H112.781Z" fill="white"/>
<path d="M46 14H100" stroke="white"/>
</svg>
